<svg xmlns="http://www.w3.org/2000/svg" width="50" height="21.03" viewBox="0 0 573 241" shape-rendering="geometricPrecision">
  <g fill="#FFFFFF" fill-rule="evenodd">
    <path d="M 446 172 L 445 173 L 444 173 L 443 174 L 442 174 L 441 175 L 441 176 L 439 178 L 439 187 L 441 189 L 441 190 L 442 191 L 443 191 L 444 192 L 445 192 L 446 193 L 452 193 L 453 192 L 454 192 L 455 191 L 456 191 L 458 189 L 458 188 L 459 187 L 459 185 L 460 184 L 460 181 L 459 180 L 459 178 L 458 177 L 458 176 L 456 174 L 455 174 L 454 173 L 453 173 L 452 172 Z" />
    <path d="M 133 172 L 132 173 L 131 173 L 127 177 L 127 179 L 126 180 L 126 185 L 127 186 L 127 188 L 131 192 L 132 192 L 133 193 L 140 193 L 141 192 L 142 192 L 146 188 L 146 187 L 147 186 L 147 179 L 146 178 L 146 177 L 142 173 L 141 173 L 140 172 Z" />
    <path d="M 299 119 L 297 121 L 296 121 L 295 122 L 295 123 L 294 124 L 294 125 L 293 126 L 293 133 L 294 134 L 294 135 L 297 138 L 298 138 L 299 139 L 300 139 L 301 140 L 325 140 L 326 139 L 327 139 L 328 138 L 329 138 L 332 135 L 332 134 L 333 133 L 333 126 L 332 125 L 332 124 L 331 123 L 331 122 L 330 121 L 329 121 L 327 119 Z" />
    <path d="M 234 119 L 232 121 L 231 121 L 230 122 L 230 123 L 229 124 L 229 125 L 228 126 L 228 133 L 229 134 L 229 135 L 232 138 L 233 138 L 234 139 L 235 139 L 236 140 L 260 140 L 261 139 L 262 139 L 263 138 L 264 138 L 267 135 L 267 134 L 268 133 L 268 126 L 267 125 L 267 124 L 266 123 L 266 122 L 265 121 L 264 121 L 262 119 Z" />
    <path d="M 230 2 L 229 3 L 224 3 L 223 4 L 221 4 L 220 5 L 217 5 L 216 6 L 214 6 L 213 7 L 212 7 L 211 8 L 210 8 L 209 9 L 207 9 L 206 10 L 205 10 L 203 12 L 202 12 L 201 13 L 200 13 L 198 15 L 197 15 L 194 18 L 193 18 L 187 24 L 186 24 L 178 32 L 177 32 L 168 41 L 167 41 L 160 48 L 159 48 L 150 57 L 149 57 L 140 66 L 139 66 L 131 74 L 130 74 L 127 77 L 126 77 L 125 78 L 122 78 L 121 79 L 116 79 L 115 80 L 111 80 L 110 81 L 104 81 L 103 82 L 98 82 L 97 83 L 91 83 L 90 84 L 84 84 L 83 85 L 78 85 L 77 86 L 70 86 L 69 87 L 64 87 L 63 88 L 57 88 L 56 89 L 52 89 L 51 90 L 46 90 L 45 91 L 42 91 L 41 92 L 39 92 L 38 93 L 36 93 L 35 94 L 34 94 L 31 97 L 30 97 L 26 101 L 26 102 L 23 105 L 23 106 L 21 108 L 21 109 L 20 110 L 20 111 L 18 113 L 18 114 L 17 115 L 17 116 L 16 117 L 16 118 L 15 119 L 15 120 L 14 121 L 14 122 L 13 123 L 13 125 L 12 126 L 12 127 L 11 128 L 11 130 L 10 131 L 10 132 L 9 133 L 9 135 L 8 136 L 8 138 L 7 139 L 7 141 L 6 142 L 6 197 L 7 198 L 7 199 L 11 203 L 13 203 L 14 204 L 84 204 L 86 206 L 86 207 L 87 208 L 87 209 L 88 210 L 88 211 L 90 213 L 90 214 L 92 216 L 92 217 L 98 223 L 98 224 L 99 224 L 104 229 L 105 229 L 107 231 L 108 231 L 109 232 L 110 232 L 111 233 L 112 233 L 113 234 L 114 234 L 115 235 L 116 235 L 117 236 L 119 236 L 120 237 L 122 237 L 123 238 L 127 238 L 128 239 L 145 239 L 146 238 L 150 238 L 151 237 L 153 237 L 154 236 L 156 236 L 157 235 L 158 235 L 159 234 L 161 234 L 163 232 L 164 232 L 165 231 L 166 231 L 168 229 L 169 229 L 173 225 L 174 225 L 177 222 L 177 221 L 181 217 L 181 216 L 183 214 L 183 213 L 185 211 L 185 210 L 186 209 L 186 208 L 187 207 L 187 206 L 189 204 L 397 204 L 399 206 L 399 208 L 401 210 L 401 211 L 402 212 L 402 213 L 404 215 L 404 216 L 407 219 L 407 220 L 414 227 L 415 227 L 418 230 L 419 230 L 420 231 L 421 231 L 423 233 L 424 233 L 425 234 L 426 234 L 427 235 L 429 235 L 430 236 L 432 236 L 433 237 L 435 237 L 436 238 L 440 238 L 441 239 L 457 239 L 458 238 L 463 238 L 464 237 L 466 237 L 467 236 L 469 236 L 470 235 L 471 235 L 472 234 L 473 234 L 474 233 L 475 233 L 476 232 L 477 232 L 479 230 L 480 230 L 482 228 L 483 228 L 493 218 L 493 217 L 495 215 L 495 214 L 497 212 L 497 211 L 498 210 L 498 209 L 499 208 L 499 207 L 500 206 L 500 205 L 501 204 L 548 204 L 549 203 L 551 203 L 552 202 L 554 202 L 555 201 L 556 201 L 557 200 L 558 200 L 565 193 L 565 192 L 566 191 L 566 190 L 567 189 L 567 188 L 568 187 L 568 185 L 569 184 L 569 93 L 568 92 L 568 91 L 567 90 L 567 88 L 566 87 L 566 86 L 565 85 L 565 83 L 564 82 L 564 81 L 563 80 L 563 78 L 562 77 L 562 76 L 561 75 L 561 74 L 560 73 L 560 71 L 559 70 L 559 69 L 558 68 L 558 66 L 557 65 L 557 64 L 556 63 L 556 61 L 555 60 L 555 59 L 554 58 L 554 56 L 553 55 L 553 54 L 552 53 L 552 52 L 551 51 L 551 49 L 550 48 L 550 47 L 549 46 L 549 44 L 548 43 L 548 42 L 547 41 L 547 39 L 546 38 L 546 37 L 545 36 L 545 34 L 544 33 L 544 29 L 545 28 L 545 26 L 546 25 L 546 24 L 551 19 L 551 18 L 552 17 L 552 16 L 553 15 L 553 10 L 552 9 L 552 7 L 548 3 L 547 3 L 546 2 Z M 444 148 L 445 147 L 454 147 L 455 148 L 458 148 L 459 149 L 461 149 L 462 150 L 463 150 L 464 151 L 465 151 L 466 152 L 467 152 L 470 155 L 471 155 L 475 159 L 475 160 L 478 163 L 478 164 L 479 165 L 479 166 L 480 167 L 480 168 L 481 169 L 481 170 L 482 171 L 482 174 L 483 175 L 483 180 L 484 181 L 484 184 L 483 185 L 483 190 L 482 191 L 482 194 L 481 195 L 481 196 L 480 197 L 480 198 L 479 199 L 479 200 L 478 201 L 478 202 L 475 205 L 475 206 L 471 210 L 470 210 L 467 213 L 466 213 L 465 214 L 464 214 L 463 215 L 462 215 L 461 216 L 459 216 L 458 217 L 455 217 L 454 218 L 444 218 L 443 217 L 440 217 L 439 216 L 437 216 L 436 215 L 435 215 L 434 214 L 433 214 L 431 212 L 430 212 L 421 203 L 421 202 L 419 200 L 419 199 L 418 198 L 418 197 L 417 196 L 417 194 L 416 193 L 416 190 L 415 189 L 415 176 L 416 175 L 416 172 L 417 171 L 417 169 L 418 168 L 418 167 L 419 166 L 419 165 L 421 163 L 421 162 L 430 153 L 431 153 L 433 151 L 434 151 L 435 150 L 436 150 L 437 149 L 439 149 L 440 148 Z M 131 148 L 132 147 L 141 147 L 142 148 L 146 148 L 147 149 L 148 149 L 149 150 L 151 150 L 152 151 L 153 151 L 155 153 L 156 153 L 164 161 L 164 162 L 166 164 L 166 165 L 167 166 L 167 167 L 168 168 L 168 169 L 169 170 L 169 172 L 170 173 L 170 177 L 171 178 L 171 187 L 170 188 L 170 192 L 169 193 L 169 195 L 168 196 L 168 197 L 167 198 L 167 199 L 166 200 L 166 201 L 164 203 L 164 204 L 156 212 L 155 212 L 153 214 L 152 214 L 151 215 L 149 215 L 148 216 L 146 216 L 145 217 L 143 217 L 142 218 L 131 218 L 130 217 L 128 217 L 127 216 L 125 216 L 124 215 L 123 215 L 122 214 L 121 214 L 120 213 L 119 213 L 117 211 L 116 211 L 109 204 L 109 203 L 107 201 L 107 200 L 106 199 L 106 198 L 105 197 L 105 196 L 104 195 L 104 192 L 103 191 L 103 188 L 102 187 L 102 178 L 103 177 L 103 174 L 104 173 L 104 170 L 105 169 L 105 168 L 106 167 L 106 166 L 107 165 L 107 164 L 109 162 L 109 161 L 116 154 L 117 154 L 119 152 L 120 152 L 121 151 L 122 151 L 123 150 L 124 150 L 125 149 L 127 149 L 128 148 Z M 79 107 L 80 106 L 81 106 L 82 107 L 82 117 L 81 118 L 81 120 L 80 121 L 80 122 L 76 126 L 75 126 L 74 127 L 73 127 L 72 128 L 71 128 L 70 129 L 69 129 L 68 130 L 65 130 L 64 131 L 61 131 L 60 132 L 57 132 L 56 133 L 51 133 L 50 134 L 47 134 L 46 135 L 41 135 L 40 136 L 37 136 L 36 137 L 32 137 L 31 136 L 32 135 L 32 134 L 33 133 L 33 131 L 34 130 L 34 129 L 35 128 L 35 127 L 36 126 L 36 125 L 37 124 L 37 123 L 39 121 L 39 120 L 41 118 L 41 117 L 46 112 L 49 112 L 50 111 L 54 111 L 55 110 L 60 110 L 61 109 L 66 109 L 67 108 L 73 108 L 74 107 Z M 544 100 L 545 99 L 547 99 L 548 100 L 548 123 L 547 124 L 531 124 L 530 123 L 529 123 L 528 122 L 527 122 L 521 116 L 521 115 L 520 114 L 520 113 L 519 112 L 519 108 L 520 107 L 530 107 L 531 106 L 532 106 L 533 105 L 534 105 L 535 104 L 536 104 L 537 103 L 538 103 L 539 102 L 540 102 L 541 101 L 542 101 L 543 100 Z M 140 94 L 141 95 L 142 95 L 144 97 L 145 97 L 147 99 L 148 99 L 150 101 L 151 101 L 152 102 L 153 102 L 155 104 L 156 104 L 158 106 L 159 106 L 160 107 L 496 107 L 497 108 L 497 111 L 498 112 L 498 116 L 499 117 L 499 119 L 500 120 L 500 122 L 501 123 L 501 124 L 502 125 L 502 126 L 503 127 L 503 128 L 506 131 L 506 132 L 511 137 L 512 137 L 515 140 L 516 140 L 517 141 L 518 141 L 519 142 L 520 142 L 521 143 L 523 143 L 524 144 L 526 144 L 527 145 L 531 145 L 532 146 L 547 146 L 548 147 L 548 179 L 547 180 L 547 181 L 546 182 L 545 182 L 544 183 L 506 183 L 505 182 L 505 179 L 504 178 L 504 171 L 503 170 L 503 167 L 502 166 L 502 164 L 501 163 L 501 161 L 500 160 L 500 159 L 499 158 L 499 157 L 498 156 L 498 155 L 497 154 L 497 153 L 495 151 L 495 150 L 493 148 L 493 147 L 483 137 L 482 137 L 480 135 L 479 135 L 477 133 L 476 133 L 475 132 L 474 132 L 473 131 L 472 131 L 471 130 L 469 130 L 468 129 L 467 129 L 466 128 L 463 128 L 462 127 L 459 127 L 458 126 L 441 126 L 440 127 L 436 127 L 435 128 L 433 128 L 432 129 L 430 129 L 429 130 L 427 130 L 426 131 L 425 131 L 424 132 L 423 132 L 421 134 L 420 134 L 419 135 L 418 135 L 415 138 L 414 138 L 406 146 L 406 147 L 404 149 L 404 150 L 402 152 L 402 153 L 401 154 L 401 155 L 399 157 L 399 159 L 398 160 L 398 161 L 397 162 L 397 164 L 396 165 L 396 167 L 395 168 L 395 172 L 394 173 L 394 181 L 392 183 L 193 183 L 192 182 L 192 174 L 191 173 L 191 170 L 190 169 L 190 166 L 189 165 L 189 163 L 188 162 L 188 160 L 187 159 L 187 158 L 186 157 L 186 156 L 185 155 L 185 154 L 183 152 L 183 151 L 181 149 L 181 148 L 178 145 L 178 144 L 174 140 L 173 140 L 169 136 L 168 136 L 166 134 L 165 134 L 164 133 L 163 133 L 162 132 L 161 132 L 160 131 L 159 131 L 158 130 L 157 130 L 156 129 L 154 129 L 153 128 L 150 128 L 149 127 L 146 127 L 145 126 L 128 126 L 127 127 L 124 127 L 123 128 L 120 128 L 119 129 L 117 129 L 116 130 L 115 130 L 114 131 L 113 131 L 112 132 L 111 132 L 110 133 L 109 133 L 108 134 L 107 134 L 105 136 L 104 136 L 98 142 L 97 142 L 97 143 L 92 148 L 92 149 L 90 151 L 90 152 L 89 153 L 89 154 L 87 156 L 87 157 L 86 158 L 86 159 L 85 160 L 85 162 L 84 163 L 84 165 L 83 166 L 83 169 L 82 170 L 82 175 L 81 176 L 81 182 L 80 183 L 28 183 L 27 182 L 27 161 L 28 160 L 29 160 L 30 159 L 34 159 L 35 158 L 39 158 L 40 157 L 44 157 L 45 156 L 49 156 L 50 155 L 54 155 L 55 154 L 59 154 L 60 153 L 64 153 L 65 152 L 68 152 L 69 151 L 72 151 L 73 150 L 75 150 L 76 149 L 78 149 L 79 148 L 80 148 L 81 147 L 82 147 L 83 146 L 84 146 L 85 145 L 86 145 L 87 144 L 88 144 L 92 140 L 93 140 L 94 139 L 94 138 L 98 134 L 98 133 L 99 132 L 99 131 L 100 130 L 100 128 L 101 127 L 101 126 L 102 125 L 102 121 L 103 120 L 103 104 L 104 103 L 107 103 L 108 102 L 113 102 L 114 101 L 119 101 L 120 100 L 124 100 L 125 99 L 129 99 L 130 98 L 132 98 L 133 97 L 135 97 L 136 96 L 138 96 Z M 165 72 L 166 72 L 172 78 L 172 79 L 174 81 L 174 83 L 175 84 L 175 85 L 174 86 L 167 86 L 166 85 L 165 85 L 163 83 L 162 83 L 160 81 L 159 81 L 158 80 L 158 78 L 159 77 L 160 77 Z M 428 24 L 429 23 L 523 23 L 524 24 L 523 25 L 523 36 L 524 37 L 524 40 L 525 41 L 525 43 L 526 44 L 526 46 L 527 47 L 527 48 L 528 49 L 528 50 L 529 51 L 529 53 L 530 54 L 530 55 L 531 56 L 531 58 L 532 59 L 532 60 L 533 61 L 533 63 L 534 64 L 534 65 L 535 66 L 535 68 L 536 69 L 536 70 L 537 71 L 537 72 L 538 73 L 538 75 L 539 76 L 539 78 L 538 79 L 537 79 L 536 80 L 535 80 L 534 81 L 533 81 L 532 82 L 531 82 L 530 83 L 529 83 L 528 84 L 527 84 L 526 85 L 525 85 L 524 86 L 413 86 L 412 85 L 413 84 L 413 81 L 414 80 L 414 77 L 415 76 L 415 73 L 416 72 L 416 69 L 417 68 L 417 65 L 418 64 L 418 62 L 419 61 L 419 57 L 420 56 L 420 54 L 421 53 L 421 49 L 422 48 L 422 46 L 423 45 L 423 42 L 424 41 L 424 38 L 425 37 L 425 34 L 426 33 L 426 30 L 427 29 L 427 26 L 428 25 Z M 310 23 L 405 23 L 406 24 L 406 25 L 405 26 L 405 29 L 404 30 L 404 33 L 403 34 L 403 37 L 402 38 L 402 41 L 401 42 L 401 45 L 400 46 L 400 49 L 399 50 L 399 53 L 398 54 L 398 56 L 397 57 L 397 61 L 396 62 L 396 65 L 395 66 L 395 68 L 394 69 L 394 73 L 393 74 L 393 76 L 392 77 L 392 80 L 391 81 L 391 84 L 389 86 L 294 86 L 293 85 L 293 84 L 294 83 L 294 80 L 295 79 L 295 76 L 296 75 L 296 72 L 297 71 L 297 68 L 298 67 L 298 64 L 299 63 L 299 61 L 300 60 L 300 56 L 301 55 L 301 53 L 302 52 L 302 48 L 303 47 L 303 45 L 304 44 L 304 40 L 305 39 L 305 37 L 306 36 L 306 33 L 307 32 L 307 29 L 308 28 L 308 25 Z M 232 24 L 233 23 L 286 23 L 287 24 L 286 25 L 286 28 L 285 29 L 285 32 L 284 33 L 284 36 L 283 37 L 283 40 L 282 41 L 282 44 L 281 45 L 281 48 L 280 49 L 280 52 L 279 53 L 279 55 L 278 56 L 278 60 L 277 61 L 277 64 L 276 65 L 276 67 L 275 68 L 275 72 L 274 73 L 274 75 L 273 76 L 273 80 L 272 81 L 272 83 L 271 84 L 271 85 L 270 86 L 198 86 L 197 85 L 197 84 L 196 83 L 196 79 L 195 78 L 195 77 L 194 76 L 194 74 L 193 73 L 193 72 L 192 71 L 192 70 L 191 69 L 191 68 L 189 66 L 189 65 L 186 62 L 186 61 L 182 57 L 187 52 L 188 52 L 197 43 L 198 43 L 205 36 L 206 36 L 210 32 L 211 32 L 213 30 L 214 30 L 215 29 L 216 29 L 217 28 L 218 28 L 219 27 L 221 27 L 222 26 L 223 26 L 224 25 L 227 25 L 228 24 Z" />
  </g>
</svg>
