<svg xmlns="http://www.w3.org/2000/svg" width="50" height="20.2703" viewBox="0 0 296 120" fill="none">
  <path d="M 233 87 L 231 89 L 230 89 L 230 90 L 228 93 L 228 97 L 230 99 L 230 100 L 232 102 L 233 102 L 234 103 L 238 103 L 239 102 L 240 102 L 243 100 L 243 99 L 244 98 L 244 91 L 240 87 Z M 234 89 L 238 89 L 239 90 L 240 90 L 242 93 L 242 96 L 241 97 L 241 98 L 239 100 L 234 100 L 231 97 L 231 96 L 230 95 L 231 94 L 231 92 Z M 49 89 L 49 90 L 47 93 L 47 97 L 49 99 L 49 100 L 51 102 L 52 102 L 53 103 L 57 103 L 58 102 L 60 102 L 62 100 L 62 99 L 63 98 L 63 91 L 59 87 L 52 87 L 50 89 Z M 53 89 L 57 89 L 58 90 L 59 90 L 61 93 L 61 97 L 58 100 L 53 100 L 50 97 L 50 92 Z M 231 72 L 230 73 L 228 73 L 227 74 L 226 74 L 225 75 L 224 75 L 222 77 L 221 77 L 219 79 L 219 80 L 216 83 L 216 84 L 215 85 L 215 87 L 214 88 L 214 92 L 213 93 L 213 97 L 214 98 L 214 102 L 215 103 L 215 104 L 216 105 L 216 106 L 217 107 L 217 108 L 223 114 L 224 114 L 227 116 L 229 116 L 230 117 L 232 117 L 233 118 L 239 118 L 240 117 L 243 117 L 244 116 L 246 116 L 247 115 L 248 115 L 251 112 L 252 112 L 254 110 L 254 109 L 256 107 L 256 106 L 257 105 L 257 104 L 259 101 L 259 89 L 258 88 L 258 86 L 257 85 L 257 84 L 256 83 L 256 82 L 250 76 L 249 76 L 247 74 L 246 74 L 245 73 L 243 73 L 242 72 Z M 232 74 L 240 74 L 241 75 L 243 75 L 244 76 L 246 76 L 250 80 L 251 80 L 252 81 L 252 82 L 254 84 L 254 85 L 256 88 L 256 91 L 257 92 L 257 97 L 256 98 L 256 102 L 255 103 L 255 104 L 254 105 L 254 106 L 249 111 L 248 111 L 246 113 L 245 113 L 244 114 L 242 114 L 241 115 L 231 115 L 230 114 L 229 114 L 228 113 L 227 113 L 226 112 L 225 112 L 219 106 L 219 105 L 217 103 L 217 100 L 216 99 L 216 90 L 217 89 L 217 87 L 218 86 L 218 85 L 219 84 L 219 83 L 224 78 L 225 78 L 227 76 L 229 76 Z M 50 72 L 49 73 L 47 73 L 46 74 L 45 74 L 44 75 L 43 75 L 40 78 L 39 78 L 38 79 L 38 80 L 36 82 L 36 83 L 34 85 L 34 88 L 33 89 L 33 91 L 32 92 L 32 97 L 33 98 L 33 101 L 34 102 L 34 104 L 35 105 L 35 106 L 37 108 L 37 109 L 41 113 L 42 113 L 44 115 L 45 115 L 46 116 L 48 116 L 49 117 L 51 117 L 52 118 L 58 118 L 59 117 L 62 117 L 63 116 L 65 116 L 66 115 L 67 115 L 69 113 L 70 113 L 74 109 L 74 108 L 76 106 L 76 104 L 78 101 L 78 89 L 77 88 L 77 86 L 76 85 L 76 84 L 75 83 L 75 82 L 69 76 L 68 76 L 66 74 L 65 74 L 64 73 L 62 73 L 61 72 Z M 51 74 L 59 74 L 60 75 L 62 75 L 63 76 L 64 76 L 65 77 L 66 77 L 67 78 L 68 78 L 69 79 L 69 80 L 70 80 L 71 81 L 71 82 L 73 84 L 73 85 L 74 86 L 74 87 L 76 90 L 76 99 L 75 100 L 75 102 L 74 103 L 74 104 L 72 106 L 72 107 L 68 111 L 67 111 L 65 113 L 64 113 L 63 114 L 61 114 L 60 115 L 50 115 L 49 114 L 48 114 L 47 113 L 46 113 L 45 112 L 44 112 L 38 106 L 38 105 L 36 102 L 36 100 L 35 99 L 35 90 L 36 89 L 36 87 L 37 86 L 37 85 L 39 83 L 39 82 L 43 78 L 44 78 L 46 76 L 48 76 Z M 116 57 L 116 58 L 117 59 L 127 59 L 128 58 L 128 57 L 127 56 L 117 56 Z M 49 54 L 48 53 L 44 53 L 43 54 L 32 54 L 31 55 L 28 55 L 27 56 L 23 56 L 22 57 L 20 57 L 19 58 L 17 58 L 16 59 L 16 60 L 14 63 L 14 65 L 13 66 L 13 68 L 14 69 L 22 69 L 25 67 L 27 67 L 29 65 L 31 65 L 33 63 L 35 63 L 36 62 L 37 62 L 38 61 L 39 61 L 40 60 L 41 60 L 42 59 L 43 59 L 44 58 L 45 58 L 46 57 L 47 57 L 48 56 L 49 56 Z M 40 57 L 39 58 L 38 58 L 37 59 L 36 59 L 35 60 L 34 60 L 33 61 L 32 61 L 31 62 L 30 62 L 29 63 L 28 63 L 25 65 L 23 65 L 22 66 L 17 66 L 16 65 L 17 64 L 17 62 L 19 60 L 20 60 L 21 59 L 25 59 L 26 58 L 29 58 L 30 57 L 34 57 L 35 56 L 39 56 Z M 267 46 L 267 47 L 268 48 L 268 49 L 269 50 L 269 51 L 270 52 L 271 52 L 273 54 L 274 54 L 277 56 L 284 56 L 284 49 L 283 48 L 283 45 L 282 44 L 271 44 L 270 45 L 268 45 Z M 270 48 L 271 47 L 275 47 L 276 46 L 280 46 L 281 47 L 281 51 L 282 52 L 282 53 L 281 54 L 278 54 L 277 53 L 276 53 L 275 52 L 274 52 Z M 133 13 L 131 11 L 122 11 L 121 12 L 113 12 L 112 13 L 110 13 L 109 14 L 107 14 L 105 16 L 104 16 L 102 18 L 101 18 L 99 20 L 98 20 L 95 23 L 94 23 L 91 26 L 90 26 L 86 30 L 85 30 L 82 33 L 82 34 L 81 35 L 81 37 L 80 38 L 80 45 L 81 46 L 90 46 L 91 45 L 115 45 L 116 44 L 130 44 L 131 43 L 132 43 L 132 42 L 133 41 Z M 130 14 L 130 40 L 129 41 L 126 41 L 125 42 L 109 42 L 108 43 L 84 43 L 83 42 L 83 37 L 84 36 L 84 35 L 88 31 L 89 31 L 93 27 L 94 27 L 97 24 L 98 24 L 101 21 L 102 21 L 104 19 L 105 19 L 107 17 L 108 17 L 109 16 L 111 16 L 112 15 L 116 15 L 117 14 L 127 14 L 128 13 L 129 13 Z M 206 11 L 206 38 L 207 39 L 207 40 L 210 42 L 223 42 L 224 41 L 260 41 L 261 40 L 262 40 L 264 38 L 264 37 L 265 36 L 265 35 L 267 33 L 267 32 L 268 31 L 268 26 L 267 25 L 267 24 L 266 23 L 266 22 L 265 21 L 265 20 L 264 19 L 264 18 L 263 17 L 263 16 L 262 15 L 262 14 L 261 13 L 261 12 L 260 12 L 257 10 L 244 10 L 243 9 L 230 9 L 229 8 L 210 8 L 209 9 L 208 9 Z M 208 13 L 210 11 L 238 11 L 239 12 L 252 12 L 253 13 L 258 13 L 259 14 L 259 15 L 260 16 L 260 17 L 261 18 L 261 19 L 262 20 L 262 21 L 263 22 L 263 23 L 264 24 L 264 25 L 265 26 L 265 27 L 266 28 L 266 29 L 265 30 L 265 31 L 264 32 L 264 33 L 263 34 L 263 35 L 260 38 L 248 38 L 247 39 L 210 39 L 208 36 Z M 140 12 L 140 14 L 139 15 L 139 19 L 140 20 L 140 41 L 142 43 L 143 43 L 144 44 L 149 44 L 150 43 L 194 43 L 195 42 L 196 42 L 197 41 L 198 41 L 198 40 L 199 39 L 199 12 L 198 11 L 198 10 L 197 10 L 194 8 L 163 8 L 162 9 L 151 9 L 150 10 L 142 10 Z M 197 13 L 197 38 L 195 40 L 180 40 L 179 41 L 143 41 L 142 40 L 142 14 L 144 12 L 154 12 L 155 11 L 177 11 L 178 10 L 179 10 L 180 11 L 195 11 Z M 280 6 L 277 6 L 276 5 L 268 5 L 267 4 L 260 4 L 259 3 L 246 3 L 245 2 L 220 2 L 219 1 L 164 1 L 163 2 L 141 2 L 140 3 L 124 3 L 123 4 L 116 4 L 115 5 L 110 5 L 109 6 L 107 6 L 106 7 L 104 7 L 103 8 L 102 8 L 100 10 L 99 10 L 98 11 L 97 11 L 96 12 L 95 12 L 93 14 L 92 14 L 90 16 L 89 16 L 88 17 L 87 17 L 85 19 L 84 19 L 82 21 L 81 21 L 79 23 L 78 23 L 76 25 L 75 25 L 72 28 L 71 28 L 69 30 L 68 30 L 66 32 L 65 32 L 63 34 L 62 34 L 59 37 L 58 37 L 56 39 L 54 39 L 53 40 L 50 40 L 49 41 L 46 41 L 45 42 L 43 42 L 42 43 L 39 43 L 38 44 L 36 44 L 35 45 L 32 45 L 29 47 L 27 47 L 24 49 L 22 49 L 21 50 L 20 50 L 19 51 L 18 51 L 16 53 L 15 53 L 14 54 L 13 54 L 8 59 L 8 60 L 6 63 L 6 65 L 5 66 L 5 71 L 4 72 L 4 75 L 2 77 L 1 77 L 1 101 L 2 101 L 3 102 L 26 102 L 27 101 L 28 101 L 28 91 L 29 90 L 29 87 L 30 86 L 30 84 L 31 83 L 31 82 L 32 81 L 32 80 L 40 72 L 41 72 L 42 71 L 43 71 L 46 69 L 48 69 L 49 68 L 52 68 L 53 67 L 58 67 L 59 68 L 62 68 L 63 69 L 65 69 L 66 70 L 67 70 L 68 71 L 69 71 L 70 72 L 71 72 L 78 79 L 78 80 L 79 81 L 79 82 L 80 83 L 80 84 L 82 87 L 82 93 L 83 94 L 83 96 L 82 97 L 82 99 L 85 102 L 207 102 L 209 100 L 209 91 L 210 90 L 210 86 L 211 85 L 211 84 L 212 83 L 212 82 L 213 81 L 213 80 L 221 72 L 222 72 L 224 70 L 226 70 L 229 68 L 233 68 L 234 67 L 239 67 L 240 68 L 243 68 L 244 69 L 246 69 L 247 70 L 248 70 L 249 71 L 250 71 L 252 73 L 253 73 L 258 78 L 258 79 L 260 81 L 260 82 L 261 83 L 261 84 L 263 87 L 263 99 L 266 102 L 274 102 L 275 101 L 281 101 L 282 100 L 288 100 L 289 99 L 291 99 L 294 97 L 294 78 L 293 78 L 290 75 L 290 74 L 291 73 L 291 53 L 290 52 L 290 44 L 289 43 L 289 41 L 287 38 L 287 36 L 286 35 L 286 33 L 285 32 L 285 30 L 283 27 L 283 24 L 281 21 L 281 19 L 279 17 L 279 16 L 278 15 L 278 14 L 276 12 L 278 10 L 278 9 L 280 7 Z M 288 48 L 288 77 L 291 80 L 291 96 L 290 97 L 287 97 L 286 98 L 279 98 L 278 99 L 267 99 L 266 98 L 266 91 L 265 90 L 265 86 L 263 83 L 263 81 L 261 79 L 261 78 L 259 76 L 259 75 L 256 72 L 255 72 L 252 69 L 251 69 L 248 67 L 246 67 L 245 66 L 243 66 L 242 65 L 231 65 L 230 66 L 228 66 L 227 67 L 225 67 L 224 68 L 223 68 L 222 69 L 221 69 L 219 71 L 218 71 L 212 77 L 212 78 L 210 80 L 210 82 L 208 85 L 208 88 L 207 89 L 207 98 L 206 99 L 86 99 L 85 98 L 85 89 L 84 88 L 84 86 L 83 85 L 83 83 L 82 82 L 82 81 L 81 80 L 81 79 L 78 76 L 78 75 L 74 71 L 73 71 L 71 69 L 70 69 L 67 67 L 65 67 L 64 66 L 62 66 L 61 65 L 50 65 L 49 66 L 47 66 L 46 67 L 44 67 L 43 68 L 42 68 L 41 69 L 40 69 L 38 71 L 37 71 L 32 76 L 32 77 L 30 79 L 30 80 L 29 81 L 29 82 L 27 85 L 27 88 L 26 89 L 26 98 L 25 99 L 5 99 L 4 98 L 4 79 L 6 77 L 6 75 L 7 74 L 7 69 L 8 68 L 8 64 L 9 63 L 9 62 L 15 56 L 16 56 L 18 54 L 19 54 L 20 53 L 21 53 L 22 52 L 23 52 L 26 50 L 28 50 L 29 49 L 31 49 L 32 48 L 34 48 L 35 47 L 37 47 L 38 46 L 40 46 L 41 45 L 43 45 L 44 44 L 47 44 L 48 43 L 51 43 L 52 42 L 55 42 L 56 41 L 58 41 L 61 38 L 62 38 L 64 36 L 65 36 L 67 34 L 68 34 L 70 32 L 71 32 L 74 29 L 75 29 L 77 27 L 78 27 L 80 25 L 81 25 L 83 23 L 84 23 L 86 21 L 87 21 L 89 19 L 90 19 L 92 17 L 93 17 L 95 15 L 96 15 L 97 14 L 98 14 L 100 12 L 101 12 L 102 11 L 103 11 L 104 10 L 105 10 L 108 8 L 112 8 L 113 7 L 118 7 L 119 6 L 131 6 L 132 5 L 147 5 L 148 4 L 238 4 L 239 5 L 252 5 L 253 6 L 264 6 L 265 7 L 271 7 L 272 8 L 274 8 L 275 9 L 274 10 L 274 14 L 277 17 L 277 18 L 278 19 L 278 21 L 279 22 L 279 23 L 281 26 L 281 28 L 282 29 L 282 31 L 283 32 L 283 34 L 285 37 L 285 40 L 287 43 L 287 47 Z" fill="#FFFFFF" fill-rule="evenodd"/>
</svg>
